<?xml version="1.0" encoding="UTF-8"?>
<svg xmlns="http://www.w3.org/2000/svg" viewBox="0 0 120.99 140.15">
  <style>.cls-1{fill:#CEA67D;}</style>
  <g>
      <polygon class="cls-1" points="120.99 122.33 116.59 122.24 108.44 112.44 108.44 122.33 103.29 122.33 103.29 103.74 107.6 103.74 115.26 112.98 115.85 113.53 115.85 103.74 120.99 103.74 120.99 122.33"/>
      <path class="cls-1" d="M105.17,51.13c-6.75,1.09-13.6-.18-20.17-1.72l-.08-.17c.14-.79.31-1.6.38-2.4,1.54-17.66-15.79-31.14-32.55-25.14-15.43,5.52-21.18,24.6-11.19,37.74,1.37,1.8,2.97,3.3,4.69,4.76-4,.03-7.95-.65-11.92-.99-4.68-.4-9.4-.57-14.09-.24-.85-1.84-1.56-3.75-2.12-5.69-5.14-17.73.99-36.65,15.48-47.9,19.83-15.38,48.47-11.36,63.31,8.75,6.95,9.41,10,21.37,8.26,33.01Z"/>
  </g>
</svg>
