<?xml version="1.0" encoding="UTF-8"?>
<svg xmlns="http://www.w3.org/2000/svg" viewBox="0 0 740.49 226">
  <style>.cls-1{fill:#CEA67D;}</style>
  <g>
    <path class="cls-1" d="M347.78,225.8c-71.7,0-80.6-24.5-81.3-27.3-4.8-9.5-3.1-15.8-1-23.8.3-1,.5-1.9.8-2.9,1.1-4.1,4-11.1,7.1-18.5,4.4-10.4,9.8-23.4,9.4-27.7-.3-3.9-2.2-5.7-5.9-5.7-3.2,0-6.9,1.3-9.4,2.4-7.2,3.2-18.6,8.7-34.4,20.6-1.8,1.3-3.7,2.8-5.6,4.3-11.6,8.9-26,20-36.8,22.4-3,.6-6,1-9,.9-4.4,0-15-.7-17.7-7.5-2.4-6.2.6-14.8,1.9-18.5,4.5-12.9,10.9-25.1,19.1-36.1,10.9-14.6,20.5-25.9,53.6-49.9C316.28,2.2,361.28.1,363.18,0h0c.9,0,1.7.7,1.7,1.7,0,.7-.4,1.3-1,1.6-45,19.9-58.1,41.4-58.2,41.6-.2.3-.5.6-.9.7-50.9,19.4-94.1,65.4-95.9,67.3l-.2.2c-18.1,22.5-18,28.7-16.4,30.4.7.7,1.8,1.1,2.8,1,5,0,13-6.1,17.2-9.3l.8-.6c14.7-11.2,42-32,62.3-34,2.1-.2,4.2-.3,6.3-.4,5.4-.2,10.7,1.3,15.2,4.3,8.5,5.6,6.7,19.4,2.1,30.5-1.7,4.1-10.2,32.8-12.3,43.4-3.7,18.9,22.5,26.8,22.7,26.9.7.2,1.2.8,1.2,1.5.1.5,2.6,11.2,37.5,15.4.9.1,1.6.9,1.5,1.9-.1,1-.9,1.7-1.8,1.7h0Z"/>
    <path class="cls-1" d="M679.58,226c-.2,0-.4,0-.6-.1-19.7-6-43.2-17.7-61.3-30.5-11.2-7.9-29.3-22.6-31.5-36.5-5.3,2.5-9.2,4.6-12.4,6.2-5.1,2.8-10.5,5.3-16,7.3-4.8,1.5-9.7,2.3-14.7,2.4-3.6,0-6.3-.6-8.1-1.7-7.1-4.6-9.2-18.7-6.3-28.2,5.1-16.6,19.7-29,34.8-39.8,9.7-7,96.8-68.5,174.8-84.2,1.1-.1,2.1.6,2.2,1.7.1.9-.3,1.7-1.1,2.1-34.4,13.5-34,26.7-33.9,26.8.1,1-.6,2-1.6,2.2-26.4,4.9-64.8,27.1-65.2,27.3-19.3,10.5-42.5,26.5-60.6,39.2l-1.2.8c-8.6,6.1-16.1,11.3-22.2,19.4l-.1.2c-3,3.9-4.9,7-2.6,10.8l.1.1c.4.1.9.2,1.3.2,2.2,0,7.8-1,20.9-7.7,2.4-1.3,60-33.6,71.2-39.1s28.6-14.9,28.8-15c1-.5,2.2,0,2.7,1,.4.8.2,1.7-.5,2.3-.1.1-13.9,11.1-15,20.2-.1.5-.4,1-.8,1.4-9.6,6.9-22.5,15-34.9,22.7-7.4,4.6-15,9.4-21.8,13.8.7,7.9,12.5,23.4,62,53.3.5.3.8.7.9,1.3,2,8.9,13.8,16.3,13.9,16.4.9.6,1.2,1.8.6,2.8-.4.5-.9.9-1.6.9h-.2Z"/>
    <path class="cls-1" d="M70.08,200.2c-15.8,0-24.8-3-25.2-3.2-1.4-.4-2.1-1.8-1.7-3.2.3-1.1,1.3-1.8,2.4-1.8.2,0,19.2-1.6,27.1-9.8.4-.5,1-.7,1.7-.8,14.4-.8,38.9-4.1,43.2-9.3.2-.2.3-.5.4-.7-.9-1.4-8.7-4.7-26.3-7.1-7.6-1-15.4-1.8-22.9-2.6-14.6-1.5-29.7-3.1-43.8-6.4l-1.5-.4c-8.9-2-19.9-4.6-22.9-13.4-4.7-13.2,20.5-23.4,31.3-27.7l1.9-.8c25-10.3,50.6-18.3,77.6-26.9l10.5-3.3c4.1-1.1,7.6-2.2,11-3.1s6.9-2,10.9-3.1l31.9-9.8c1.3-.4,2.8.4,3.2,1.7.4,1.2-.2,2.6-1.4,3.1-21.9,9.1-25.5,16.4-25.6,16.5-.3.6-.8,1.2-1.4,1.4-.7.2-66.3,25-96.1,35.2l-1.2.4c-6.1,2.1-24.3,8.3-25.5,12.4,2,2.3,16.2,3.6,23,4.3,2.7.3,5.3.5,7.6.8l4.9.6c21.5,2.6,41.8,5,61.8,9.1l1.3.3c8.1,1.6,19.3,3.9,22.2,11.4.8,2.2.6,4.7-.4,6.8-4,9-20.5,17.8-23.8,19.1-18.7,6.7-37,10.3-54.2,10.3h0Z"/>
    <path class="cls-1" d="M426.08,190.6c-.5,0-1-.2-1.4-.4-.9-.6-21.2-14.6-26.5-38.3h0c-2.2,2.4-4.5,4.8-8.6,8.5-12,10.6-25.9,17.7-42.7,21.6-3.4.8-6.8,1.2-10.2,1.2-13.1,0-23.5-5.9-26.6-15.1-4.4-13,12-30.4,17.1-35.4,15.7-15.4,33-26.7,57.7-37.6.5-.2,12.3-5,21.5-5,1.7,0,3.5.2,5.2.6,17.2,4.9,10.4,34.1,10.1,35.4-.3,1.2-1.3,2-2.5,2h-.3c-1.3-.1-2.2-1.2-2.3-2.5-.2-12.7-4.1-19.2-11.6-19.2-1.9,0-3.9.4-5.6,1.1-21.6,9.4-32.7,17.7-50.5,31.7-10.2,8-19.2,18.4-16.5,23.6.4.4,2.3,2.3,6.4,2.3,2.5-.1,5-.6,7.3-1.6,12.3-5.1,23.2-12.1,35.2-22.6,1.3-1.1,2.6-2.4,4-3.8,5.1-4.9,10.3-9.9,15.6-9.9,1.7,0,3.3.5,4.6,1.5,4,2.9,6.9,10.8,10,19.3,1.7,4.7,3.4,9.2,4.8,11.5.6.8.6,1.9,0,2.7-.3.7-2.2,7.2,7.9,24.5.7,1.2.3,2.8-.9,3.5-.3.4-.7.5-1.2.4h0Z"/>
    <path class="cls-1" d="M448.08,191.6c-1.1,0-2.1-.7-2.5-1.8l-3-10.1c-1.3-4.7-5.3-21.2-2.5-36.7,3-16.8,8.9-29.3,17.9-38.4,10.4-10.4,24.9-15.9,43.3-16.3h1.6c4.7,0,9.8.4,15.2.8,6.4.5,13,1.1,20.3,1.1s14.4-.6,21.5-1.9c1.4-.3,2.8.5,3.1,1.9s-.5,2.8-1.9,3.1c-.2.1-19.4,5.6-26.9,13.9-.6.7-1.6,1-2.5.8-6.9-1.7-14-2.5-21.1-2.6-18.4,0-31.7,6.2-37.5,11.5-8.6,7.9-13.3,18.9-15.5,36.8-.3,3-.5,6-.5,8.9,0,.8-.4,1.6-1.1,2.1,0,0-6.6,5.2-5.5,24.1.1,1.4-1,2.6-2.4,2.7q.1.1,0,.1h0Z"/>
    <path class="cls-1" d="M71.18,128.3c-2.1-3.6-6.6-4.8-10.2-2.7s-4.8,6.6-2.7,10.2c2.1,3.6,6.6,4.8,10.2,2.7,2.3-1.3,3.7-3.8,3.7-6.5,0-1.3-.4-2.5-1-3.7ZM68.98,136.3c-2.4,2.3-6.1,2.3-8.5,0-2.3-2.4-2.3-6.1,0-8.5s6.1-2.3,8.5,0c1.1,1.1,1.7,2.6,1.7,4.2.1,1.7-.6,3.2-1.7,4.3Z"/>
    <path class="cls-1" d="M61.28,136h2v-3.1h.2c.3,0,.6.2.8.4.6.9,1.1,1.8,1.6,2.7h2.3l-1.3-2.3c-.2-.3-.4-.6-.6-.8s-.4-.3-.7-.4c.6-.1,1.2-.4,1.6-.9.3-.4.5-.9.5-1.4,0-.6-.2-1.2-.7-1.6-.6-.5-1.4-.7-2.2-.6h-3.5s0,8,0,8ZM63.28,129.5h.9c.4,0,.8.1,1.2.3.2.2.3.4.3.7s-.1.6-.3.7c-.4.2-.8.3-1.2.3h-.9v-2Z"/>
  </g>
</svg>
